<svg xmlns="http://www.w3.org/2000/svg" width="1920" height="1080" viewBox="0 0 1920 1080">
<rect width="1920" height="1080" fill="#f4f7f5"/>
<text x="55" y="79.16" font-family="Arial, sans-serif" font-size="48" font-weight="700" fill="#16352c">FYNURA</text>
<text x="55" y="126.68" font-family="Arial, sans-serif" font-size="29" font-weight="400" fill="#16352c">Traceable surveillance. Source-grounded research.</text>
<text x="1320" y="74.32" font-family="Arial, sans-serif" font-size="21" font-weight="700" fill="#16352c">PRODUCTION ARCHITECTURE</text>
<text x="1320" y="108.32" font-family="Arial, sans-serif" font-size="21" font-weight="400" fill="#16352c">31 AUG 2026</text>
<rect x="360" y="160" width="1175" height="770" rx="24" fill="#eaf3ef" stroke="#97b9a8" stroke-width="2"/>
<text x="390" y="204.68" font-family="Arial, sans-serif" font-size="29" font-weight="700" fill="#16352c">GOOGLE CLOUD</text>
<text x="390" y="242.08" font-family="Arial, sans-serif" font-size="24" font-weight="400" fill="#16352c">Cloud Run hosts API + frontend; managed services connect below.</text>
<rect x="35" y="275" width="295" height="190" rx="18" fill="#ffffff" stroke="#c9d9d0" stroke-width="2"/>
<text x="57" y="312.16" font-family="Arial, sans-serif" font-size="23" font-weight="700" fill="#16352c">STRUCTURED INPUTS</text>
<text x="57" y="352.32" font-family="Arial, sans-serif" font-size="21" font-weight="400" fill="#16352c">Selected WHO reports</text>
<text x="57" y="382.32" font-family="Arial, sans-serif" font-size="21" font-weight="400" fill="#16352c">Cholera / Measles / Ebola</text>
<text x="57" y="412.32" font-family="Arial, sans-serif" font-size="21" font-weight="400" fill="#16352c">HTTP retrieval + parsing</text>
<rect x="35" y="515" width="295" height="170" rx="18" fill="#ffffff" stroke="#c9d9d0" stroke-width="2"/>
<text x="57" y="554.0" font-family="Arial, sans-serif" font-size="25" font-weight="700" fill="#16352c">HISTORICAL FILES</text>
<text x="57" y="592.32" font-family="Arial, sans-serif" font-size="21" font-weight="400" fill="#16352c">WHO / CDC archives</text>
<text x="57" y="622.32" font-family="Arial, sans-serif" font-size="21" font-weight="400" fill="#16352c">OWID WHO-derived data</text>
<text x="57" y="652.32" font-family="Arial, sans-serif" font-size="21" font-weight="400" fill="#16352c">Bundled snapshots</text>
<rect x="35" y="750" width="295" height="150" rx="18" fill="#ffffff" stroke="#c9d9d0" stroke-width="2"/>
<text x="57" y="789.0" font-family="Arial, sans-serif" font-size="25" font-weight="700" fill="#16352c">SEARCH SOURCES</text>
<text x="57" y="827.32" font-family="Arial, sans-serif" font-size="21" font-weight="400" fill="#16352c">Official authorities first</text>
<text x="57" y="857.32" font-family="Arial, sans-serif" font-size="21" font-weight="400" fill="#16352c">News as labeled context</text>
<rect x="395" y="280" width="515" height="145" rx="18" fill="#ffffff" stroke="#c9d9d0" stroke-width="2"/>
<text x="417" y="319.0" font-family="Arial, sans-serif" font-size="25" font-weight="700" fill="#16352c">Cloud Scheduler → RefreshService</text>
<text x="417" y="357.32" font-family="Arial, sans-serif" font-size="21" font-weight="400" fill="#16352c">OIDC-validated refresh; lease + due time</text>
<text x="417" y="387.32" font-family="Arial, sans-serif" font-size="21" font-weight="400" fill="#16352c">Cached evidence retained on failure</text>
<rect x="395" y="465" width="515" height="180" rx="18" fill="#ffffff" stroke="#c9d9d0" stroke-width="2"/>
<text x="417" y="504.0" font-family="Arial, sans-serif" font-size="25" font-weight="700" fill="#16352c">Deterministic evidence processing</text>
<text x="417" y="542.32" font-family="Arial, sans-serif" font-size="21" font-weight="400" fill="#16352c">WHO adapters → typed observations</text>
<text x="417" y="572.32" font-family="Arial, sans-serif" font-size="21" font-weight="400" fill="#16352c">Compatibility grouping + guarded metrics</text>
<text x="417" y="602.32" font-family="Arial, sans-serif" font-size="21" font-weight="400" fill="#16352c">Provenance + heuristic confidence</text>
<rect x="395" y="685" width="515" height="155" rx="18" fill="#ffffff" stroke="#c9d9d0" stroke-width="2"/>
<text x="417" y="724.0" font-family="Arial, sans-serif" font-size="25" font-weight="700" fill="#16352c">Firestore evidence store</text>
<text x="417" y="762.32" font-family="Arial, sans-serif" font-size="21" font-weight="400" fill="#16352c">Chunked assessments + latest pointers</text>
<text x="417" y="792.32" font-family="Arial, sans-serif" font-size="21" font-weight="400" fill="#16352c">Application/session records</text>
<path d="M330,370 L395,370" stroke="#168664" stroke-width="4"/><polygon points="395,370 383.5914266954251,376.2325320018546 383.5914266954251,363.7674679981454" fill="#168664"/>
<path d="M650,425 L650,465" stroke="#168664" stroke-width="4"/><polygon points="650,465 643.7674679981453,453.5914266954252 656.2325320018547,453.5914266954251" fill="#168664"/>
<path d="M650,645 L650,685" stroke="#168664" stroke-width="4"/><polygon points="650,685 643.7674679981453,673.5914266954252 656.2325320018547,673.5914266954252" fill="#168664"/>
<rect x="955" y="280" width="545" height="190" rx="18" fill="#ffffff" stroke="#c9d9d0" stroke-width="2"/>
<text x="977" y="319.0" font-family="Arial, sans-serif" font-size="25" font-weight="700" fill="#16352c">Shared intent → ADK research / review</text>
<text x="977" y="357.32" font-family="Arial, sans-serif" font-size="21" font-weight="400" fill="#16352c">Question + audience + optional chart</text>
<text x="977" y="387.32" font-family="Arial, sans-serif" font-size="21" font-weight="400" fill="#16352c">Eight recent successful exchanges</text>
<text x="977" y="417.32" font-family="Arial, sans-serif" font-size="21" font-weight="400" fill="#16352c">Google Search; bounded provider retries</text>
<text x="977" y="447.32" font-family="Arial, sans-serif" font-size="21" font-weight="400" fill="#16352c">Grounding metadata → linked answer</text>
<rect x="955" y="515" width="545" height="155" rx="18" fill="#ffffff" stroke="#c9d9d0" stroke-width="2"/>
<text x="977" y="554.0" font-family="Arial, sans-serif" font-size="25" font-weight="700" fill="#16352c">Vertex AI / Google GenAI SDK</text>
<text x="977" y="592.32" font-family="Arial, sans-serif" font-size="21" font-weight="400" fill="#16352c">Gemini 3.7 Flash · global</text>
<text x="977" y="622.32" font-family="Arial, sans-serif" font-size="21" font-weight="400" fill="#16352c">Research and explanatory synthesis</text>
<rect x="955" y="710" width="545" height="130" rx="18" fill="#ffffff" stroke="#c9d9d0" stroke-width="2"/>
<text x="977" y="749.0" font-family="Arial, sans-serif" font-size="25" font-weight="700" fill="#16352c">Historical analytics</text>
<text x="977" y="787.32" font-family="Arial, sans-serif" font-size="21" font-weight="400" fill="#16352c">Country series + guarded period totals</text>
<text x="977" y="817.32" font-family="Arial, sans-serif" font-size="21" font-weight="400" fill="#16352c">Exploratory monthly measles CUSUM</text>
<path d="M1230,470 L1230,515" stroke="#168664" stroke-width="4"/><polygon points="1230,515 1223.7674679981453,503.5914266954252 1236.2325320018547,503.5914266954251" fill="#168664"/>
<path d="M910,755 L955,405" stroke="#168664" stroke-width="4"/><polygon points="955,405 959.7268070624986,417.11021449000447 947.3635106421228,415.5206478073847" fill="#168664"/>
<text x="395" y="867.48" font-family="Arial, sans-serif" font-size="19" font-weight="400" fill="#16352c">Store → research: supplementary evidence context</text>
<text x="390" y="911.4" font-family="Arial, sans-serif" font-size="20" font-weight="400" fill="#16352c">Identity: Firebase Auth   |   Config: Secret Manager   |   Operations: Cloud Logging</text>
<rect x="1580" y="280" width="305" height="210" rx="18" fill="#ffffff" stroke="#c9d9d0" stroke-width="2"/>
<text x="1602" y="315.32" font-family="Arial, sans-serif" font-size="21" font-weight="700" fill="#16352c">BROWSER WORKSPACE</text>
<text x="1602" y="357.32" font-family="Arial, sans-serif" font-size="21" font-weight="400" fill="#16352c">Maps / charts / history</text>
<text x="1602" y="387.32" font-family="Arial, sans-serif" font-size="21" font-weight="400" fill="#16352c">Ask Fynura + follow-ups</text>
<text x="1602" y="417.32" font-family="Arial, sans-serif" font-size="21" font-weight="400" fill="#16352c">Source inspection</text>
<text x="1602" y="447.32" font-family="Arial, sans-serif" font-size="21" font-weight="400" fill="#16352c">Briefs / infographic exports</text>
<rect x="1580" y="535" width="305" height="165" rx="18" fill="#ffffff" stroke="#c9d9d0" stroke-width="2"/>
<text x="1602" y="574.0" font-family="Arial, sans-serif" font-size="25" font-weight="700" fill="#16352c">GOOGLE SIGN-IN</text>
<text x="1602" y="612.32" font-family="Arial, sans-serif" font-size="21" font-weight="400" fill="#16352c">Verified Google identity</text>
<text x="1602" y="642.32" font-family="Arial, sans-serif" font-size="21" font-weight="400" fill="#16352c">Country + consent</text>
<text x="1602" y="672.32" font-family="Arial, sans-serif" font-size="21" font-weight="400" fill="#16352c">Application access session</text>
<rect x="1580" y="745" width="305" height="170" rx="18" fill="#ffffff" stroke="#c9d9d0" stroke-width="2"/>
<text x="1602" y="784.0" font-family="Arial, sans-serif" font-size="25" font-weight="700" fill="#16352c">PEOPLE</text>
<text x="1602" y="821.4" font-family="Arial, sans-serif" font-size="20" font-weight="400" fill="#16352c">Public / health professionals</text>
<text x="1602" y="852.32" font-family="Arial, sans-serif" font-size="21" font-weight="400" fill="#16352c">Clinicians / researchers</text>
<text x="1602" y="882.32" font-family="Arial, sans-serif" font-size="21" font-weight="400" fill="#16352c">Journalists / policymakers</text>
<path d="M1500,370 L1580,370" stroke="#168664" stroke-width="4"/><polygon points="1580,370 1568.591426695425,376.2325320018546 1568.591426695425,363.7674679981454" fill="#168664"/>
<path d="M1500,770 L1580,450" stroke="#168664" stroke-width="4"/><polygon points="1580,450 1583.2794587213173,462.5795528734203 1571.186570364287,459.55633078416275" fill="#168664"/>
<path d="M1730,700 L1730,745" stroke="#168664" stroke-width="4"/><polygon points="1730,745 1723.7674679981453,733.5914266954252 1736.2325320018547,733.5914266954252" fill="#168664"/>
<path d="M330,600 L345,600" stroke="#168664" stroke-width="3"/>
<path d="M345,600 L345,875" stroke="#168664" stroke-width="3"/>
<path d="M345,875 L930,875" stroke="#168664" stroke-width="3"/>
<path d="M930,875 L930,780" stroke="#168664" stroke-width="3"/>
<path d="M930,780 L955,780" stroke="#168664" stroke-width="4"/><polygon points="955,780 943.5914266954252,786.2325320018547 943.5914266954252,773.7674679981453" fill="#168664"/>
<path d="M330,820 L352,820" stroke="#356ba2" stroke-width="3"/>
<path d="M352,820 L352,252" stroke="#356ba2" stroke-width="3"/>
<path d="M352,252 L932,252" stroke="#356ba2" stroke-width="3"/>
<path d="M932,252 L932,330" stroke="#356ba2" stroke-width="3"/>
<path d="M932,330 L955,330" stroke="#356ba2" stroke-width="4"/><polygon points="955,330 943.5914266954252,336.2325320018546 943.5914266954252,323.7674679981454" fill="#356ba2"/>
<text x="55" y="976.08" font-family="Arial, sans-serif" font-size="24" font-weight="700" fill="#16352c">Separate responsibilities: deterministic calculations own dashboard numbers; Gemini researches and explains.</text>
<text x="55" y="1015.32" font-family="Arial, sans-serif" font-size="21" font-weight="400" fill="#16352c">Build/deploy: Cloud Build + Artifact Registry. Archives are not continuously refreshed. Search does not update canonical snapshots.</text>
<text x="55" y="1051.32" font-family="Arial, sans-serif" font-size="21" font-weight="400" fill="#35624e">Verified production inference: Gemini 3.7 Flash on Vertex AI.</text>
</svg>